<?xml version="1.0" encoding="utf-8"?>
<svg version="1.1" id="Layer_1" xmlns="http://www.w3.org/2000/svg" xmlns:xlink="http://www.w3.org/1999/xlink" x="0px" y="0px"
	 viewBox="0 0 112 27" style="enable-background:new 0 0 112 27;" xml:space="preserve">
<style type="text/css">
	.st0{fill:#CECECE;}
	.st1{fill:#EF7D00;}
	.st2{clip-path:url(#SVGID_2_);fill:#EF7D00;}
	.st3{clip-path:url(#SVGID_2_);fill:#CECECE;}
</style>
<rect y="-0.03" class="st0" width="5.85" height="10.3"/>
<rect x="18.8" y="19" transform="matrix(1.023629e-03 -1 1 1.023629e-03 -2.3597 45.7711)" class="st0" width="5.86" height="10.13"/>
<rect x="10.06" y="10.24" class="st1" width="6.64" height="6.64"/>
<polygon class="st1" points="10.06,-0.03 10.06,6.03 20.93,6.03 20.93,16.88 26.79,16.88 26.79,-0.03 "/>
<polygon class="st0" points="0,14.49 0,27 12.45,27 12.45,21.14 5.86,21.14 5.86,14.49 "/>
<g>
	<defs>
		<rect id="SVGID_1_" y="-0.03" width="112.18" height="27.03"/>
	</defs>
	<clipPath id="SVGID_2_">
		<use xlink:href="#SVGID_1_"  style="overflow:visible;"/>
	</clipPath>
	<path class="st2" d="M37.02,3.76c0,0.15-0.09,0.24-0.24,0.24h-1.5c-0.17,0-0.24-0.09-0.24-0.24v-1.2c0-0.39-0.21-0.6-0.6-0.6h-0.78
		c-0.4,0-0.6,0.21-0.6,0.6V9.4c0,0.41,0.21,0.6,0.6,0.6h0.78c0.39,0,0.6-0.19,0.6-0.6V8.2c0-0.15,0.08-0.24,0.24-0.24h1.5
		c0.15,0,0.24,0.09,0.24,0.24v1.62c0,1.41-0.77,2.16-2.16,2.16h-1.68c-1.41,0-2.18-0.75-2.18-2.16V2.14c0-1.41,0.77-2.16,2.18-2.16
		h1.68c1.4,0,2.16,0.75,2.16,2.16V3.76z"/>
	<path class="st2" d="M42.04,2.6l-0.96,5.24H43L42.04,2.6z M44.04,11.99c-0.14,0-0.21-0.07-0.24-0.21l-0.42-2.19H40.7l-0.41,2.19
		c-0.03,0.13-0.1,0.21-0.24,0.21h-1.61c-0.16,0-0.24-0.09-0.19-0.25l2.49-11.54c0.03-0.15,0.12-0.21,0.26-0.21h2.09
		c0.14,0,0.23,0.06,0.26,0.21l2.49,11.54c0.03,0.16-0.03,0.25-0.21,0.25H44.04z"/>
	<path class="st2" d="M50.72,5.98c0.39,0,0.6-0.21,0.6-0.6V2.56c0-0.39-0.21-0.6-0.6-0.6h-1.49v4.02H50.72z M53.36,5.8
		c0,1.01-0.38,1.67-1.1,1.98l1.04,3.93c0.04,0.18-0.05,0.27-0.21,0.27h-1.56c-0.15,0-0.23-0.07-0.26-0.21l-1.01-3.81h-1.04v3.78
		c0,0.15-0.09,0.24-0.24,0.24h-1.56c-0.15,0-0.24-0.09-0.24-0.24V0.22c0-0.15,0.09-0.24,0.24-0.24h3.77c1.41,0,2.16,0.75,2.16,2.16
		V5.8z"/>
	<path class="st2" d="M54.86,2.14c0-1.41,0.75-2.16,2.16-2.16H59c1.4,0,2.16,0.75,2.16,2.16V3.7c0,0.15-0.09,0.24-0.24,0.24h-1.5
		c-0.17,0-0.24-0.09-0.24-0.24V2.56c0-0.39-0.21-0.6-0.6-0.6H57.5c-0.4,0-0.6,0.21-0.6,0.6V9.4c0,0.41,0.21,0.6,0.6,0.6h1.08
		c0.39,0,0.6-0.19,0.6-0.6V7.39H58.4c-0.17,0-0.24-0.09-0.24-0.24v-1.5c0-0.17,0.08-0.24,0.24-0.24h2.52c0.15,0,0.24,0.07,0.24,0.24
		v4.17c0,1.41-0.76,2.16-2.16,2.16h-1.98c-1.41,0-2.16-0.75-2.16-2.16V2.14z"/>
	<path class="st2" d="M66.14,10.05c0.39,0,0.6-0.19,0.6-0.6V2.51c0-0.39-0.21-0.6-0.6-0.6h-0.87c-0.39,0-0.6,0.21-0.6,0.6v6.93
		c0,0.4,0.21,0.6,0.6,0.6H66.14z M62.67,2.14c0-1.41,0.75-2.16,2.16-2.16h1.68c1.41,0,2.16,0.75,2.16,2.16v7.69
		c0,1.41-0.75,2.16-2.16,2.16h-1.68c-1.41,0-2.16-0.75-2.16-2.16V2.14z"/>
	<path class="st3" d="M39.26,14.99c0.19,0,0.3,0.1,0.3,0.3V26.7c0,0.19-0.1,0.3-0.3,0.3h-1.4c-0.19,0-0.3-0.11-0.3-0.3v-6.75h-0.1
		l-1.49,6.78C35.93,26.91,35.82,27,35.64,27h-0.74c-0.18,0-0.28-0.09-0.33-0.27l-1.49-6.78h-0.1v6.75c0,0.19-0.1,0.3-0.3,0.3h-1.38
		c-0.2,0-0.3-0.11-0.3-0.3V15.29c0-0.2,0.1-0.3,0.3-0.3h1.98c0.18,0,0.28,0.09,0.33,0.27l1.67,7.48l1.67-7.48
		c0.04-0.18,0.15-0.27,0.33-0.27H39.26z"/>
	<path class="st3" d="M44.43,17.62l-0.96,5.24h1.92L44.43,17.62z M46.42,27c-0.14,0-0.21-0.07-0.24-0.21l-0.42-2.19h-2.67
		l-0.41,2.19c-0.03,0.14-0.1,0.21-0.24,0.21h-1.61c-0.16,0-0.24-0.09-0.19-0.25l2.49-11.54c0.03-0.15,0.12-0.21,0.26-0.21h2.09
		c0.14,0,0.23,0.06,0.26,0.21l2.49,11.54c0.03,0.17-0.03,0.25-0.21,0.25H46.42z"/>
	<path class="st3" d="M55.6,14.99c0.15,0,0.24,0.09,0.24,0.24v11.53c0,0.15-0.09,0.24-0.24,0.24h-1.49c-0.14,0-0.23-0.06-0.27-0.2
		l-2.3-6.41h-0.08v6.36c0,0.15-0.08,0.24-0.24,0.24h-1.56c-0.15,0-0.24-0.09-0.24-0.24V15.23c0-0.15,0.09-0.24,0.24-0.24h1.49
		c0.13,0,0.22,0.06,0.27,0.2l2.28,6.38h0.09v-6.33c0-0.15,0.08-0.24,0.24-0.24H55.6z"/>
	<path class="st3" d="M60.99,17.62l-0.96,5.24h1.92L60.99,17.62z M62.98,27c-0.14,0-0.21-0.07-0.24-0.21l-0.42-2.19h-2.67
		l-0.41,2.19c-0.03,0.14-0.1,0.21-0.24,0.21H57.4c-0.16,0-0.24-0.09-0.19-0.25L59.7,15.2c0.03-0.15,0.12-0.21,0.26-0.21h2.09
		c0.14,0,0.23,0.06,0.26,0.21l2.49,11.54c0.03,0.17-0.03,0.25-0.21,0.25H62.98z"/>
	<path class="st3" d="M65.85,17.15c0-1.41,0.75-2.16,2.16-2.16h1.98c1.39,0,2.16,0.75,2.16,2.16v1.56c0,0.15-0.09,0.24-0.24,0.24
		h-1.5c-0.17,0-0.24-0.09-0.24-0.24v-1.14c0-0.39-0.21-0.6-0.6-0.6h-1.08c-0.4,0-0.6,0.21-0.6,0.6v6.84c0,0.41,0.21,0.6,0.6,0.6
		h1.08c0.39,0,0.6-0.2,0.6-0.6v-2.01h-0.78c-0.17,0-0.24-0.09-0.24-0.24v-1.5c0-0.16,0.07-0.24,0.24-0.24h2.52
		c0.15,0,0.24,0.08,0.24,0.24v4.17c0,1.41-0.77,2.16-2.16,2.16h-1.98c-1.41,0-2.16-0.75-2.16-2.16V17.15z"/>
	<path class="st3" d="M79.65,16.73c0,0.15-0.06,0.25-0.24,0.25h-3.75v3h2.87c0.15,0,0.24,0.09,0.24,0.25v1.49
		c0,0.17-0.09,0.26-0.24,0.26h-2.87v3.03h3.75c0.18,0,0.24,0.07,0.24,0.24v1.5c0,0.15-0.06,0.24-0.24,0.24h-5.52
		c-0.14,0-0.23-0.09-0.23-0.24V15.23c0-0.15,0.09-0.24,0.23-0.24h5.52c0.18,0,0.24,0.09,0.24,0.24V16.73z"/>
	<path class="st3" d="M89.27,14.99c0.2,0,0.3,0.1,0.3,0.3V26.7c0,0.19-0.1,0.3-0.3,0.3h-1.4c-0.2,0-0.3-0.11-0.3-0.3v-6.75h-0.1
		l-1.49,6.78C85.94,26.91,85.83,27,85.65,27h-0.74c-0.18,0-0.28-0.09-0.33-0.27l-1.48-6.78H83v6.75c0,0.19-0.11,0.3-0.3,0.3h-1.38
		c-0.2,0-0.3-0.11-0.3-0.3V15.29c0-0.2,0.11-0.3,0.3-0.3h1.98c0.18,0,0.29,0.09,0.33,0.27l1.67,7.48l1.67-7.48
		c0.04-0.18,0.15-0.27,0.33-0.27H89.27z"/>
	<path class="st3" d="M97.06,16.73c0,0.15-0.06,0.25-0.24,0.25h-3.75v3h2.87c0.15,0,0.24,0.09,0.24,0.25v1.49
		c0,0.17-0.09,0.26-0.24,0.26h-2.87v3.03h3.75c0.18,0,0.24,0.07,0.24,0.24v1.5c0,0.15-0.06,0.24-0.24,0.24H91.3
		c-0.13,0-0.22-0.09-0.22-0.24V15.23c0-0.15,0.09-0.24,0.22-0.24h5.53c0.18,0,0.24,0.09,0.24,0.24V16.73z"/>
	<path class="st3" d="M104.73,14.99c0.15,0,0.24,0.09,0.24,0.24v11.53c0,0.15-0.09,0.24-0.24,0.24h-1.49c-0.13,0-0.23-0.06-0.27-0.2
		l-2.3-6.41h-0.08v6.36c0,0.15-0.07,0.24-0.24,0.24h-1.56c-0.15,0-0.24-0.09-0.24-0.24V15.23c0-0.15,0.09-0.24,0.24-0.24h1.49
		c0.13,0,0.22,0.06,0.27,0.2l2.28,6.38h0.09v-6.33c0-0.15,0.07-0.24,0.24-0.24H104.73z"/>
	<path class="st3" d="M111.94,14.99c0.16,0,0.24,0.09,0.24,0.24v1.5c0,0.15-0.08,0.24-0.24,0.24h-1.74v9.78
		c0,0.17-0.07,0.24-0.24,0.24h-1.56c-0.15,0-0.24-0.08-0.24-0.24v-9.78h-1.74c-0.15,0-0.24-0.09-0.24-0.24v-1.5
		c0-0.15,0.09-0.24,0.24-0.24H111.94z"/>
</g>
</svg>
